<?xml version="1.0" encoding="UTF-8" standalone="no"?>
<svg
   xmlns:dc="http://purl.org/dc/elements/1.1/"
   xmlns:cc="http://creativecommons.org/ns#"
   xmlns:rdf="http://www.w3.org/1999/02/22-rdf-syntax-ns#"
   xmlns:svg="http://www.w3.org/2000/svg"
   xmlns="http://www.w3.org/2000/svg"
   id="svg28"
   version="1.1"
   viewBox="0 0 141.89191 51.119999"
   height="51.119999"
   width="141.89191">
  <metadata
     id="metadata32">
    <rdf:RDF>
      <cc:Work
         rdf:about="">
        <dc:format>image/svg+xml</dc:format>
        <dc:type
           rdf:resource="http://purl.org/dc/dcmitype/StillImage" />
        <dc:title>enex_logo</dc:title>
      </cc:Work>
    </rdf:RDF>
  </metadata>
  <!-- Generator: Sketch 54.1 (76490) - https://sketchapp.com -->
  <title
     id="title2">enex_logo</title>
  <desc
     id="desc4">Created with Sketch.</desc>
  <defs
     id="defs11">
    <linearGradient
       gradientUnits="userSpaceOnUse"
       gradientTransform="scale(0.97299344,1.0277562)"
       id="linearGradient-1"
       y2="12.132225"
       x2="139.45896"
       y1="23.667566"
       x1="125.6011">
      <stop
         id="stop6"
         offset="0%"
         stop-color="#EA8221" />
      <stop
         id="stop8"
         offset="100%"
         stop-color="#FFB91A" />
    </linearGradient>
  </defs>
  <g
     transform="translate(-27.456,-27)"
     style="fill:none;fill-rule:evenodd;stroke:none;stroke-width:1"
     id="enex_logo">
    <g
       transform="translate(27,27)"
       id="Group">
      <g
         id="Group-18">
        <g
           id="logo">
          <polygon
             style="fill:#3229aa;fill-rule:nonzero"
             points="27.816,13.536 26.616,19.584 10.968,19.584 9.4320004,27.36 27.768,27.36 26.472,33.6 0.45600043,33.6 7.1760004,1.0658141e-14 32.568,1.0658141e-14 31.272,6.24 13.656,6.24 12.216,13.536 "
             id="Path" />
          <path
             style="fill:#3229aa;fill-rule:nonzero"
             id="path14"
             d="m 51.144,7.392 c 2.880015,0 5.167992,0.7599924 6.864001,2.28 1.696008,1.520008 2.543999,3.687986 2.543999,6.504 0,1.056005 -0.111998,2.095995 -0.336,3.12 L 57.336,33.6 h -7.488 l 2.784,-13.824 c 0.128001,-0.544003 0.192,-1.135997 0.192,-1.776 0,-1.344007 -0.367996,-2.367996 -1.104,-3.072 -0.736003,-0.704003 -1.839992,-1.056 -3.312,-1.056 -1.920009,0 -3.511993,0.551994 -4.776,1.656 -1.264006,1.104006 -2.119997,2.759989 -2.568,4.968 L 38.472,33.6 H 30.984 L 36.120001,7.776 h 7.104 l -0.576,2.784 C 44.952012,8.4479894 47.783984,7.392 51.144,7.392 Z" />
          <path
             style="fill:#3229aa;fill-rule:nonzero"
             id="path16"
             d="M 75.344,10.848 C 76.464006,9.6319939 77.815992,8.7520027 79.4,8.208 80.984008,7.6639973 82.847989,7.392 84.992,7.392 l -1.344,6.912 c -0.896004,-0.064 -1.471999,-0.096 -1.728,-0.096 -2.272011,0 -4.087993,0.559994 -5.448,1.68 -1.360007,1.120006 -2.279997,2.863988 -2.76,5.232 L 71.216,33.6 H 63.728 L 68.864,7.776 h 7.104 z" />
          <path
             style="fill:#3229aa;fill-rule:nonzero"
             id="Combined-Shape"
             d="m 110.816,18.768 c 0,1.184006 -0.144,2.495993 -0.432,3.936 H 90.608 c 0.256002,3.520018 2.479979,5.28 6.672,5.28 1.312007,0 2.567994,-0.207998 3.768,-0.624 1.20001,-0.416002 2.248,-1.007996 3.144,-1.776 l 3.12,4.944 c -1.44001,1.152006 -3.08799,2.015997 -4.944,2.592 -1.85601,0.576003 -3.807989,0.864 -5.856,0.864 -2.656013,0 -4.98399,-0.471995 -6.984,-1.416 -2.00001,-0.944005 -3.535994,-2.295991 -4.608,-4.056 -1.072005,-1.760009 -1.608,-3.791989 -1.608,-6.096 0,-2.848014 0.647994,-5.415989 1.944,-7.704 1.296007,-2.288011 3.095989,-4.079994 5.4,-5.376 2.304012,-1.2960065 4.927986,-1.944 7.872,-1.944 2.49601,0 4.66399,0.4639954 6.504,1.392 1.84001,0.9280046 3.264,2.255991 4.272,3.984 1.00801,1.728009 1.512,3.727989 1.512,6 z m -12.624,-5.76 c -1.760009,0 -3.247994,0.471995 -4.464,1.416 -1.216006,0.944005 -2.079997,2.247992 -2.592,3.912 h 12.816 c 0,-1.664008 -0.51999,-2.967995 -1.56,-3.912 -1.04,-0.944005 -2.439991,-1.416 -4.2,-1.416 z" />
          <polygon
             style="fill:#3229aa"
             points="109.41394,33.6 122.55622,23.329492 124.90194,28.229028 117.95794,33.6 "
             id="Path-3" />
          <polygon
             style="fill:url(#linearGradient-1);fill-rule:nonzero"
             points="129.1959,33.6 117.8999,20.352 134.0919,7.776 142.3479,7.776 125.9159,20.688 137.1159,33.6 "
             id="polygon20" />
          <polygon
             style="fill:#3229aa"
             points="129.37812,24.678735 134.07612,20.873193 122.82758,7.776 114.47004,7.776 "
             id="Path-2" />
        </g>
        <path
           style="fill:#ea8221;fill-rule:nonzero"
           id="ENERGY"
           d="m 38.144,43.908 -0.432,2.184 h 4.068 l -0.252,1.284 h -4.08 l -0.456,2.316 h 4.752 L 41.48,51 h -6.3 l 1.68,-8.4 h 6.132 l -0.264,1.308 z M 62.352,42.6 60.672,51 H 59.388 L 55.944,45.12 54.768,51 H 53.22 l 1.68,-8.4 h 1.284 l 3.456,5.88 1.164,-5.88 z m 13.552,1.308 -0.432,2.184 h 4.068 l -0.252,1.284 h -4.08 l -0.456,2.316 h 4.752 L 79.24,51 h -6.3 l 1.68,-8.4 h 6.132 l -0.264,1.308 z m 23.212,1.224 c 0,0.808004 -0.215997,1.489997 -0.648,2.046 -0.432002,0.556003 -1.035996,0.941999 -1.812,1.158 L 98.156,51 H 96.5 L 95.12,48.54 H 93.032 L 92.552,51 H 90.98 l 1.68,-8.4 h 3.264 c 1.016005,0 1.801998,0.221998 2.358,0.666 0.556003,0.444002 0.834,1.065996 0.834,1.866 z m -3.96,2.124 c 0.760004,0 1.347998,-0.169998 1.764,-0.51 0.416003,-0.340002 0.624,-0.829997 0.624,-1.47 0,-0.448002 -0.153998,-0.785999 -0.462,-1.014 -0.308001,-0.228001 -0.749997,-0.342 -1.326,-0.342 h -1.788 l -0.672,3.336 z m 21.196,-0.552 h 1.476 l -0.684,3.384 c -0.424,0.328002 -0.906,0.581999 -1.446,0.762 -0.54,0.180001 -1.102,0.27 -1.686,0.27 -0.824,0 -1.544,-0.149998 -2.16,-0.45 -0.616,-0.300002 -1.09,-0.719997 -1.422,-1.26 -0.332,-0.540003 -0.498,-1.165996 -0.498,-1.878 0,-0.944005 0.216,-1.799996 0.648,-2.568 0.432,-0.768004 1.044,-1.373998 1.836,-1.818 0.792,-0.444002 1.704,-0.666 2.736,-0.666 0.76,0 1.424,0.117999 1.992,0.354 0.568,0.236001 1.028,0.577998 1.38,1.026 l -1.128,0.936 c -0.272,-0.328002 -0.596,-0.567999 -0.972,-0.72 -0.376,-0.152001 -0.824,-0.228 -1.344,-0.228 -0.712,0 -1.338,0.157998 -1.878,0.474 -0.54,0.316002 -0.958,0.745997 -1.254,1.29 -0.296,0.544003 -0.444,1.151997 -0.444,1.824 0,0.712004 0.232,1.275998 0.696,1.692 0.464,0.416002 1.128,0.624 1.992,0.624 0.584,0 1.128,-0.131999 1.632,-0.396 z m 16.84,1.428 -0.576,2.868 h -1.548 l 0.588,-2.976 -2.196,-5.424 h 1.548 l 1.656,4.104 3.312,-4.104 h 1.632 z" />
      </g>
    </g>
  </g>
</svg>
